<?xml version="1.0" encoding="utf-8"?>
<!-- Generator: Adobe Illustrator 16.0.0, SVG Export Plug-In . SVG Version: 6.00 Build 0)  -->
<!DOCTYPE svg PUBLIC "-//W3C//DTD SVG 1.1//EN" "http://www.w3.org/Graphics/SVG/1.1/DTD/svg11.dtd">
<svg version="1.1" id="Layer_1" xmlns="http://www.w3.org/2000/svg" xmlns:xlink="http://www.w3.org/1999/xlink" x="0px" y="0px"
	 width="1266.83px" height="452.092px" viewBox="0 0 1266.83 452.092" enable-background="new 0 0 1266.83 452.092"
	 xml:space="preserve">
<g>
	<path fill="#000100" d="M104.782,158.519H41.061v-49.072c0-18.065,3.758-32.323,11.279-42.773
		c7.519-10.448,20.409-19.677,38.672-27.686l13.77,26.074C93.55,70.335,85.787,75.586,81.491,80.809
		c-4.298,5.226-6.69,11.403-7.178,18.53h30.469V158.519z M179.049,158.519h-63.721v-49.072c0-18.065,3.758-32.323,11.279-42.773
		c7.519-10.448,20.409-19.677,38.672-27.686l13.77,26.074c-11.231,5.273-18.995,10.524-23.291,15.747
		c-4.298,5.226-6.69,11.403-7.178,18.53h30.469V158.519z"/>
	<path fill="#000100" d="M334.792,42.65v214.746h-55.811v-22.998c-7.814,9.767-14.941,16.358-21.387,19.775
		c-8.595,4.49-18.164,6.738-28.711,6.738c-21.192,0-37.379-8.057-48.56-24.17c-11.183-16.113-16.772-35.692-16.772-58.74
		c0-25.781,6.175-45.506,18.53-59.18c12.353-13.671,28.052-20.508,47.095-20.508c9.276,0,17.699,1.563,25.269,4.688
		c7.567,3.126,14.282,7.814,20.142,14.062V42.65H334.792z M275.026,179.173c0-12.206-2.589-21.313-7.764-27.319
		c-5.177-6.006-11.719-9.009-19.629-9.009c-6.935,0-12.744,2.882-17.432,8.643c-4.688,5.763-7.031,15.431-7.031,29.004
		c0,12.696,2.417,21.998,7.251,27.905c4.834,5.91,10.814,8.862,17.944,8.862c7.617,0,13.964-2.978,19.043-8.936
		C272.485,202.368,275.026,192.65,275.026,179.173z"/>
	<path fill="#000100" d="M513.825,194.408H394.293c1.073,9.572,3.662,16.699,7.764,21.387c5.761,6.738,13.28,10.107,22.559,10.107
		c5.859,0,11.426-1.465,16.699-4.395c3.223-1.854,6.688-5.127,10.4-9.814l58.74,5.42c-8.986,15.626-19.826,26.832-32.52,33.618
		c-12.696,6.786-30.908,10.181-54.639,10.181c-20.606,0-36.818-2.906-48.633-8.716c-11.817-5.809-21.606-15.038-29.37-27.686
		c-7.764-12.646-11.646-27.514-11.646-44.604c0-24.316,7.787-43.993,23.364-59.033c15.575-15.038,37.083-22.559,64.526-22.559
		c22.266,0,39.844,3.369,52.734,10.107s22.705,16.505,29.443,29.297c6.738,12.794,10.107,29.443,10.107,49.951V194.408z
		 M453.18,165.843c-1.172-11.522-4.273-19.775-9.302-24.756c-5.031-4.98-11.646-7.471-19.849-7.471
		c-9.474,0-17.042,3.761-22.705,11.279c-3.614,4.688-5.91,11.671-6.885,20.947H453.18z"/>
	<path fill="#000100" d="M626.94,101.83h55.811v146.924l0.146,6.885c0,9.764-2.076,19.066-6.226,27.905
		c-4.151,8.837-9.668,15.989-16.553,21.46c-6.885,5.468-15.626,9.423-26.221,11.865c-10.597,2.439-22.73,3.662-36.401,3.662
		c-31.251,0-52.711-4.688-64.38-14.062c-11.671-9.375-17.505-21.925-17.505-37.646c0-1.955,0.096-4.592,0.293-7.91l57.861,6.592
		c1.465,5.369,3.71,9.082,6.738,11.133c4.395,3.025,9.911,4.541,16.553,4.541c8.592,0,15.015-2.296,19.263-6.885
		c4.248-4.592,6.372-12.598,6.372-24.023v-23.584c-5.859,6.935-11.719,11.964-17.578,15.088c-9.181,4.885-19.093,7.324-29.736,7.324
		c-20.801,0-37.599-9.082-50.391-27.246c-9.082-12.891-13.623-29.931-13.623-51.123c0-24.218,5.859-42.675,17.578-55.371
		c11.719-12.694,27.049-19.043,45.996-19.043c12.108,0,22.094,2.051,29.956,6.152c7.86,4.102,15.209,10.89,22.046,20.361V101.83z
		 M570.836,177.269c0,11.231,2.392,19.556,7.178,24.976c4.784,5.42,11.083,8.13,18.896,8.13c7.42,0,13.646-2.806,18.677-8.423
		c5.028-5.614,7.544-14.085,7.544-25.415c0-11.327-2.637-19.995-7.91-26.001s-11.719-9.009-19.336-9.009s-13.696,2.76-18.237,8.276
		C573.107,155.322,570.836,164.477,570.836,177.269z"/>
	<path fill="#000100" d="M690.983,42.65h59.619v40.576h-59.619V42.65z M690.983,101.83h59.619v155.566h-59.619V101.83z"/>
	<path fill="#000100" d="M830.612,42.65v59.18h32.812v43.652h-32.812v55.115c0,6.628,0.634,11.014,1.904,13.156
		c1.952,3.314,5.369,4.971,10.254,4.971c4.395,0,10.547-1.266,18.457-3.802l4.395,41.155c-14.747,3.223-28.517,4.834-41.309,4.834
		c-14.846,0-25.781-1.902-32.812-5.706s-12.231-9.581-15.601-17.335s-5.054-20.311-5.054-37.672v-54.716h-21.973V101.83h21.973
		V73.265L830.612,42.65z"/>
	<path fill="#000100" d="M916.188,152.22l-56.982-6.006c2.146-9.961,5.248-17.798,9.302-23.511
		c4.051-5.713,9.888-10.668,17.505-14.868c5.468-3.026,12.986-5.37,22.559-7.031c9.569-1.659,19.922-2.49,31.055-2.49
		c17.871,0,32.227,1.002,43.066,3.003c10.84,2.003,19.871,6.178,27.1,12.524c5.076,4.395,9.082,10.62,12.012,18.677
		s4.395,15.747,4.395,23.071v68.701c0,7.324,0.462,13.062,1.392,17.212c0.927,4.152,2.952,9.448,6.079,15.894h-55.957
		c-2.248-4.003-3.713-7.055-4.395-9.155c-0.685-2.099-1.369-5.395-2.051-9.888c-7.814,7.521-15.578,12.891-23.291,16.113
		c-10.547,4.296-22.804,6.445-36.768,6.445c-18.556,0-32.644-4.296-42.261-12.891c-9.62-8.592-14.429-19.189-14.429-31.787
		c0-11.815,3.465-21.533,10.4-29.15c6.933-7.617,19.725-13.28,38.379-16.992c22.361-4.491,36.863-7.64,43.506-9.448
		c6.64-1.806,13.671-4.175,21.094-7.104c0-7.324-1.516-12.451-4.541-15.381c-3.028-2.93-8.35-4.395-15.967-4.395
		c-9.767,0-17.091,1.563-21.973,4.688C921.608,140.893,918.532,145.482,916.188,152.22z M967.897,183.568
		c-8.203,2.93-16.75,5.519-25.635,7.764c-12.11,3.223-19.775,6.397-22.998,9.521c-3.321,3.223-4.98,6.885-4.98,10.986
		c0,4.688,1.634,8.521,4.907,11.499c3.271,2.98,8.079,4.468,14.429,4.468c6.64,0,12.817-1.611,18.53-4.834
		s9.764-7.152,12.158-11.792c2.392-4.637,3.589-10.668,3.589-18.091V183.568z"/>
	<path fill="#000100" d="M1033.991,42.65h59.766v214.746h-59.766V42.65z"/>
	<path fill="#000100" d="M1091.881,38.988h63.721V88.06c0,18.068-3.761,32.35-11.279,42.847
		c-7.521,10.499-20.361,19.702-38.525,27.612l-13.916-26.074c11.327-5.273,19.116-10.521,23.364-15.747
		c4.248-5.223,6.614-11.4,7.104-18.53h-30.469V38.988z M1166.149,38.988h63.721V88.06c0,18.068-3.761,32.35-11.279,42.847
		c-7.521,10.499-20.361,19.702-38.525,27.612l-13.916-26.074c11.327-5.273,19.116-10.521,23.364-15.747
		c4.248-5.223,6.614-11.4,7.104-18.53h-30.469V38.988z"/>
</g>
<g>
	<path stroke="#FFFFFF" stroke-miterlimit="10" d="M209.284,340.286h19.873v13.525h-19.873V340.286z M209.284,360.012h19.873v51.855
		h-19.873V360.012z"/>
	<path stroke="#FFFFFF" stroke-miterlimit="10" d="M251.852,360.012h18.506v8.447c2.767-3.45,5.566-5.916,8.398-7.397
		c2.832-1.48,6.282-2.222,10.352-2.222c5.501,0,9.806,1.636,12.915,4.907c3.108,3.271,4.663,8.325,4.663,15.161v32.959h-19.971
		v-28.516c0-3.255-0.603-5.558-1.807-6.909c-1.205-1.351-2.897-2.026-5.078-2.026c-2.409,0-4.362,0.911-5.859,2.734
		c-1.498,1.823-2.246,5.095-2.246,9.814v24.902h-19.873V360.012z"/>
	<path stroke="#FFFFFF" stroke-miterlimit="10" d="M366.188,360.012h20.969l10.696,34.521l9.934-34.521h19.583l-20.573,55.407
		c-2.343,6.319-4.735,10.586-7.175,12.802c-3.449,3.128-8.705,4.691-15.765,4.691c-2.864,0-7.289-0.391-13.276-1.172l-1.561-13.867
		c2.862,0.911,6.049,1.367,9.562,1.367c2.341,0,4.236-0.538,5.683-1.612c1.447-1.077,2.675-3,3.684-5.77L366.188,360.012z"/>
	<path stroke="#FFFFFF" stroke-miterlimit="10" d="M438.834,386.086c0-7.91,2.669-14.429,8.008-19.556
		c5.338-5.127,12.549-7.69,21.631-7.69c10.384,0,18.229,3.011,23.535,9.033c4.264,4.851,6.396,10.823,6.396,17.92
		c0,7.976-2.645,14.511-7.935,19.604c-5.29,5.095-12.606,7.642-21.948,7.642c-8.333,0-15.072-2.116-20.215-6.348
		C441.992,401.451,438.834,394.583,438.834,386.086z M458.756,386.038c0,4.622,0.936,8.04,2.808,10.254
		c1.872,2.214,4.224,3.32,7.056,3.32c2.864,0,5.216-1.091,7.056-3.271c1.839-2.181,2.759-5.681,2.759-10.498
		c0-4.492-0.928-7.837-2.783-10.034s-4.15-3.296-6.885-3.296c-2.897,0-5.29,1.115-7.178,3.345
		C459.7,378.087,458.756,381.48,458.756,386.038z"/>
	<path stroke="#FFFFFF" stroke-miterlimit="10" d="M572.614,411.868h-18.555v-8.398c-2.767,3.45-5.559,5.908-8.374,7.373
		c-2.816,1.465-6.274,2.197-10.376,2.197c-5.469,0-9.758-1.636-12.866-4.907c-3.109-3.271-4.663-8.309-4.663-15.112v-33.008h19.971
		v28.516c0,3.255,0.602,5.566,1.807,6.934c1.204,1.367,2.897,2.051,5.078,2.051c2.376,0,4.321-0.911,5.835-2.734
		s2.271-5.095,2.271-9.814v-24.951h19.873V411.868z"/>
	<path stroke="#FFFFFF" stroke-miterlimit="10" d="M594.87,360.012h18.604v8.496c1.79-3.679,3.638-6.209,5.542-7.593
		c1.904-1.383,4.256-2.075,7.056-2.075c2.93,0,6.136,0.911,9.619,2.734l-6.152,14.16c-2.344-0.977-4.199-1.465-5.566-1.465
		c-2.604,0-4.623,1.074-6.055,3.223c-2.051,3.027-3.076,8.691-3.076,16.992v17.383H594.87V360.012z"/>
	<path stroke="#FFFFFF" stroke-miterlimit="10" d="M692.409,340.286h19.873v26.367c2.701-2.8,5.387-4.802,8.057-6.006
		c2.669-1.204,5.826-1.807,9.473-1.807c5.403,0,9.66,1.644,12.769,4.932s4.663,8.333,4.663,15.137v32.959h-19.971v-28.516
		c0-3.255-0.603-5.558-1.807-6.909c-1.205-1.351-2.897-2.026-5.078-2.026c-2.409,0-4.362,0.911-5.859,2.734
		c-1.498,1.823-2.246,5.095-2.246,9.814v24.902h-19.873V340.286z"/>
	<path stroke="#FFFFFF" stroke-miterlimit="10" d="M787.223,376.809l-18.994-2.002c0.716-3.32,1.75-5.933,3.101-7.837
		s3.296-3.557,5.835-4.956c1.822-1.009,4.329-1.79,7.52-2.344c3.189-0.554,6.641-0.83,10.352-0.83
		c5.957,0,10.742,0.334,14.355,1.001c3.613,0.668,6.624,2.059,9.033,4.175c1.692,1.465,3.027,3.54,4.004,6.226
		s1.465,5.249,1.465,7.69v22.9c0,2.441,0.154,4.354,0.464,5.737c0.31,1.384,0.984,3.149,2.026,5.298h-18.652
		c-0.749-1.335-1.237-2.352-1.465-3.052c-0.229-0.699-0.456-1.799-0.684-3.296c-2.604,2.507-5.192,4.297-7.764,5.371
		c-3.516,1.433-7.602,2.148-12.256,2.148c-6.186,0-10.881-1.433-14.087-4.297s-4.81-6.396-4.81-10.596
		c0-3.938,1.155-7.178,3.467-9.717c2.311-2.539,6.575-4.427,12.793-5.664c7.454-1.497,12.288-2.547,14.502-3.149
		c2.213-0.602,4.557-1.392,7.031-2.368c0-2.441-0.505-4.15-1.514-5.127c-1.01-0.977-2.783-1.465-5.322-1.465
		c-3.256,0-5.697,0.521-7.324,1.562C789.03,373.033,788.004,374.563,787.223,376.809z M804.459,387.258
		c-2.734,0.977-5.583,1.839-8.545,2.588c-4.037,1.074-6.592,2.132-7.666,3.174c-1.107,1.074-1.66,2.295-1.66,3.662
		c0,1.562,0.545,2.841,1.636,3.833c1.091,0.993,2.693,1.489,4.81,1.489c2.213,0,4.272-0.537,6.177-1.611s3.255-2.384,4.053-3.931
		c0.798-1.546,1.196-3.557,1.196-6.03V387.258z"/>
	<path stroke="#FFFFFF" stroke-miterlimit="10" d="M845.807,360.012h18.506v8.447c2.767-3.45,5.566-5.916,8.398-7.397
		c2.832-1.48,6.282-2.222,10.352-2.222c5.501,0,9.807,1.636,12.915,4.907s4.663,8.325,4.663,15.161v32.959H880.67v-28.516
		c0-3.255-0.603-5.558-1.807-6.909c-1.205-1.351-2.897-2.026-5.078-2.026c-2.409,0-4.362,0.911-5.859,2.734
		c-1.498,1.823-2.246,5.095-2.246,9.814v24.902h-19.873V360.012z"/>
	<path stroke="#FFFFFF" stroke-miterlimit="10" d="M977.096,340.286v71.582h-18.604v-7.666c-2.604,3.255-4.98,5.452-7.129,6.592
		c-2.865,1.497-6.055,2.246-9.57,2.246c-7.064,0-12.459-2.686-16.187-8.057s-5.591-11.897-5.591-19.58
		c0-8.594,2.059-15.169,6.177-19.727s9.351-6.836,15.698-6.836c3.092,0,5.9,0.521,8.423,1.562s4.761,2.604,6.714,4.688v-24.805
		H977.096z M957.174,385.793c0-4.069-0.863-7.104-2.588-9.106c-1.726-2.002-3.906-3.003-6.543-3.003
		c-2.312,0-4.248,0.96-5.811,2.881s-2.344,5.144-2.344,9.668c0,4.231,0.806,7.333,2.417,9.302c1.611,1.97,3.604,2.954,5.981,2.954
		c2.539,0,4.654-0.993,6.348-2.979C956.328,393.525,957.174,390.286,957.174,385.793z"/>
	<path stroke="#FFFFFF" stroke-miterlimit="10" d="M995.69,397.463l19.727-1.855c0.813,2.344,1.953,4.021,3.418,5.029
		s3.418,1.514,5.859,1.514c2.669,0,4.736-0.568,6.201-1.706c1.139-0.846,1.709-1.901,1.709-3.169c0-1.43-0.749-2.536-2.246-3.315
		c-1.074-0.553-3.923-1.234-8.545-2.049c-6.901-1.201-11.694-2.315-14.38-3.34s-4.948-2.756-6.787-5.195
		c-1.839-2.438-2.759-5.219-2.759-8.342c0-3.414,0.992-6.357,2.979-8.829c1.985-2.472,4.72-4.316,8.203-5.536
		c3.482-1.219,8.154-1.829,14.014-1.829c6.185,0,10.75,0.472,13.696,1.416s5.403,2.409,7.373,4.395s3.604,4.671,4.907,8.057
		l-18.848,1.855c-0.488-1.66-1.303-2.881-2.441-3.662c-1.562-1.042-3.451-1.562-5.664-1.562c-2.246,0-3.882,0.398-4.907,1.194
		c-1.025,0.797-1.538,1.764-1.538,2.901c0,1.268,0.65,2.226,1.953,2.876c1.302,0.65,4.134,1.235,8.496,1.756
		c6.607,0.748,11.523,1.788,14.746,3.121c3.223,1.334,5.688,3.236,7.397,5.707c1.709,2.473,2.563,5.188,2.563,8.146
		c0,2.992-0.903,5.902-2.71,8.731s-4.655,5.081-8.545,6.756c-3.89,1.674-9.188,2.512-15.894,2.512
		c-9.473,0-16.219-1.351-20.239-4.053S996.829,402.444,995.69,397.463z"/>
</g>
</svg>
